<svg width="16" height="14" viewBox="0 0 16 14" fill="none" xmlns="http://www.w3.org/2000/svg">
<path d="M14.3113 1.17993C14.7388 1.17993 15.0613 1.55493 14.8888 2.25243L13.8426 7.18368L12.7963 12.1149C12.6501 12.8162 12.2263 12.9849 11.6413 12.6587L6.65009 8.97243C6.63074 8.95854 6.61497 8.94025 6.60409 8.91905C6.59321 8.89786 6.58754 8.87438 6.58754 8.85056C6.58754 8.82673 6.59321 8.80325 6.60409 8.78206C6.61497 8.76087 6.63074 8.74257 6.65009 8.72868L12.4138 3.52368C12.6763 3.29118 12.3576 3.17868 12.0126 3.38868L4.77884 7.95243C4.75691 7.96674 4.732 7.97586 4.70601 7.97911C4.68002 7.98236 4.65363 7.97965 4.62884 7.97118L1.55759 6.99993C0.875095 6.80118 0.875095 6.33243 1.71134 5.99868L14.0001 1.25868C14.0975 1.21193 14.2034 1.18515 14.3113 1.17993Z" fill="white" stroke="#25B2E7" stroke-linecap="round" stroke-linejoin="round"/>
</svg>
